<?xml version="1.0" standalone="no"?>
<!DOCTYPE svg PUBLIC "-//W3C//DTD SVG 20010904//EN"
 "http://www.w3.org/TR/2001/REC-SVG-20010904/DTD/svg10.dtd">
<svg version="1.0" xmlns="http://www.w3.org/2000/svg"
 width="512.000000pt" height="512.000000pt" viewBox="0 0 512.000000 512.000000"
 preserveAspectRatio="xMidYMid meet">
<metadata>
Created by potrace 1.16, written by Peter Selinger 2001-2019
</metadata>
<g transform="translate(0.000000,512.000000) scale(0.100000,-0.100000)"
fill="#000000" stroke="none">
<path d="M2475 4362 c-6 -5 -39 -14 -74 -20 -36 -6 -67 -15 -70 -20 -3 -4 -21
-14 -38 -21 -18 -8 -33 -17 -33 -21 0 -5 -12 -13 -27 -19 -16 -7 -46 -23 -68
-36 -22 -14 -53 -32 -70 -40 -16 -9 -50 -29 -75 -45 -25 -16 -58 -36 -75 -45
-53 -27 -160 -88 -165 -94 -3 -3 -21 -14 -40 -24 -19 -9 -53 -28 -75 -42 -22
-13 -52 -29 -67 -36 -16 -6 -28 -15 -28 -19 0 -5 -16 -14 -35 -20 -19 -6 -35
-15 -35 -20 0 -4 -12 -13 -27 -19 -16 -7 -44 -22 -64 -34 -20 -12 -72 -42
-114 -67 -42 -25 -94 -55 -114 -67 -20 -12 -48 -27 -63 -34 -16 -6 -28 -15
-28 -19 0 -5 -16 -14 -35 -20 -19 -6 -35 -15 -35 -20 0 -4 -12 -13 -28 -19
-15 -7 -45 -23 -67 -36 -22 -13 -54 -32 -71 -42 -42 -24 -100 -58 -149 -88
-22 -13 -52 -29 -68 -36 -15 -6 -27 -15 -27 -19 0 -4 -11 -11 -24 -14 -14 -3
-31 -12 -38 -19 -7 -6 -29 -20 -48 -30 -19 -9 -48 -26 -65 -37 -16 -11 -42
-26 -58 -33 -100 -48 -102 -199 -2 -251 16 -9 48 -27 70 -41 22 -13 52 -29 68
-36 15 -6 27 -15 27 -19 0 -5 16 -14 35 -20 19 -6 35 -15 35 -20 0 -4 12 -13
28 -19 15 -7 45 -23 67 -36 22 -14 56 -33 75 -42 19 -10 37 -21 40 -24 5 -6
112 -67 165 -94 17 -9 50 -29 75 -45 25 -16 59 -36 75 -45 17 -8 44 -24 60
-35 17 -11 46 -28 65 -37 19 -10 41 -24 48 -30 7 -7 24 -16 38 -19 13 -3 24
-10 24 -14 0 -4 12 -13 28 -19 15 -7 43 -22 63 -34 20 -12 72 -42 114 -67 42
-25 94 -55 114 -67 20 -12 48 -27 64 -34 15 -6 27 -15 27 -19 0 -5 16 -14 35
-20 19 -6 35 -15 35 -20 0 -4 12 -13 28 -19 15 -7 45 -23 67 -36 22 -14 56
-33 75 -42 19 -10 37 -21 40 -24 3 -4 32 -21 65 -38 32 -18 66 -37 75 -44 8
-7 26 -19 40 -25 14 -7 50 -27 80 -44 55 -32 56 -32 191 -33 146 0 146 0 280
79 20 11 72 41 114 66 42 25 94 55 114 67 20 12 48 27 64 34 15 6 27 15 27 19
0 4 11 11 24 14 14 3 31 12 38 19 7 6 29 20 48 30 19 9 49 26 65 37 17 11 41
26 55 33 27 13 69 39 112 68 15 11 33 19 39 19 7 0 20 7 29 15 8 8 43 28 75
46 33 17 62 34 65 38 3 3 21 14 40 24 19 9 53 28 75 42 22 13 52 29 68 36 15
6 27 15 27 19 0 5 16 14 35 20 19 6 35 15 35 20 0 4 12 13 28 19 15 7 43 22
63 34 20 12 72 42 114 67 42 25 94 55 114 67 20 12 48 27 64 34 15 6 27 14 27
18 0 4 16 13 35 20 19 7 35 16 35 21 0 4 12 13 28 19 15 7 45 23 67 36 55 34
96 57 136 78 46 25 79 77 79 126 0 50 -32 105 -70 121 -17 7 -30 16 -30 20 0
5 -12 13 -27 19 -16 7 -46 23 -68 36 -22 14 -56 33 -75 42 -19 10 -37 21 -40
24 -3 4 -32 21 -64 38 -33 17 -65 36 -71 41 -6 5 -38 24 -71 41 -32 17 -66 37
-74 43 -8 7 -26 18 -40 24 -14 7 -38 21 -55 32 -16 11 -46 28 -65 37 -19 10
-41 24 -48 30 -7 7 -24 16 -38 19 -13 3 -24 10 -24 14 0 4 -12 13 -27 19 -16
7 -44 22 -64 34 -20 12 -72 42 -114 67 -42 25 -94 55 -114 67 -20 12 -48 27
-63 34 -16 6 -28 15 -28 19 0 5 -16 14 -35 20 -19 6 -35 15 -35 20 0 4 -12 13
-27 19 -16 7 -44 22 -65 34 -60 37 -257 151 -286 166 -15 8 -33 20 -40 28 -7
7 -20 13 -27 13 -7 0 -20 7 -29 15 -8 8 -25 20 -38 25 -13 6 -41 22 -63 35
-22 14 -56 33 -75 42 -19 10 -38 21 -41 25 -3 5 -32 13 -65 19 -32 6 -67 15
-76 20 -22 11 -71 12 -83 1z m160 -37 c35 -12 1921 -1100 2028 -1169 30 -20
47 -57 47 -102 0 -25 -9 -43 -32 -68 -41 -42 -1971 -1163 -2048 -1189 -87 -30
-200 -21 -287 24 -170 86 -1961 1134 -1991 1165 -24 25 -32 43 -32 69 0 73 7
78 397 305 202 118 653 379 1001 582 348 202 651 374 675 382 56 20 184 20
242 1z"/>
<path d="M4643 2702 c-17 -9 -66 -37 -108 -62 -43 -25 -94 -54 -114 -65 l-36
-20 -3 -523 -2 -524 -40 -47 c-22 -26 -40 -51 -40 -57 0 -5 -7 -22 -16 -39
-21 -39 -21 -141 0 -180 9 -16 16 -35 16 -41 0 -6 23 -34 50 -62 34 -35 64
-55 93 -63 53 -14 150 -15 203 0 45 12 128 85 139 123 4 13 13 26 19 30 7 5
11 44 11 103 0 59 -4 98 -11 103 -6 4 -15 17 -18 30 -4 13 -25 40 -47 62 l-39
38 0 606 c0 478 -3 606 -12 606 -7 -1 -27 -9 -45 -18z m47 -608 l0 -606 30
-30 c54 -53 74 -105 74 -183 0 -78 -20 -130 -73 -182 -120 -120 -329 -85 -405
69 -49 99 -25 235 55 302 l29 25 0 524 0 525 138 80 c75 44 140 81 145 81 4 1
7 -272 7 -605z"/>
<path d="M1022 1948 c3 -327 5 -365 21 -388 9 -13 17 -32 17 -42 0 -9 28 -45
63 -80 71 -71 87 -84 119 -99 13 -5 40 -20 60 -32 50 -30 391 -228 431 -250
18 -10 50 -29 72 -42 22 -13 52 -29 68 -36 15 -6 27 -15 27 -19 0 -5 16 -14
35 -20 19 -6 35 -15 35 -19 0 -4 17 -15 38 -24 20 -9 44 -20 52 -25 50 -29
100 -50 130 -57 19 -4 41 -12 48 -18 11 -9 223 -39 277 -39 63 0 265 32 290
46 17 9 39 16 50 16 11 0 29 6 40 14 11 7 37 19 58 25 20 7 37 16 37 21 0 5
16 14 35 20 19 6 35 15 35 20 0 4 12 13 28 19 15 7 45 23 67 36 22 14 51 30
65 37 14 7 40 23 58 35 18 12 52 31 75 43 23 12 58 32 78 44 20 11 72 41 114
66 42 25 93 54 111 65 19 11 62 35 95 53 73 40 79 44 143 108 66 66 71 73 85
120 7 21 18 50 24 63 9 17 12 122 12 360 l0 336 -25 3 c-14 1 -41 -7 -60 -20
-19 -12 -60 -35 -90 -51 -30 -16 -57 -32 -60 -36 -3 -3 -21 -14 -40 -24 -19
-9 -48 -26 -65 -37 -31 -20 -78 -47 -130 -75 -16 -9 -46 -26 -67 -38 -20 -12
-86 -51 -148 -87 -62 -36 -128 -75 -148 -87 -21 -12 -49 -27 -64 -34 -16 -6
-28 -15 -28 -19 0 -5 -16 -14 -35 -20 -19 -6 -35 -15 -35 -20 0 -4 -12 -13
-27 -19 -16 -7 -44 -22 -65 -34 -81 -49 -148 -87 -153 -87 -4 0 -25 -9 -48
-19 -98 -44 -323 -44 -427 0 -55 24 -140 68 -160 84 -8 6 -26 17 -40 23 -14 7
-38 21 -55 32 -16 11 -46 28 -65 37 -19 10 -37 21 -40 24 -5 6 -112 67 -165
94 -16 9 -50 29 -75 45 -25 16 -58 36 -75 45 -16 8 -48 26 -70 40 -22 13 -52
29 -67 36 -16 6 -28 15 -28 19 0 5 -16 14 -35 20 -19 6 -35 15 -35 20 0 4 -12
13 -27 19 -16 7 -44 22 -64 34 -35 21 -166 98 -212 124 -12 7 -32 13 -45 13
l-23 0 3 -362z m623 0 c314 -182 593 -342 622 -355 152 -70 352 -68 507 5 34
16 214 118 401 227 624 363 784 455 800 461 15 6 16 -24 13 -337 l-3 -344 -32
-65 c-18 -36 -51 -84 -75 -107 -27 -26 -196 -130 -453 -279 -620 -358 -643
-367 -910 -367 -263 0 -294 11 -842 329 -197 114 -388 224 -424 245 -80 46
-142 112 -177 187 l-27 57 -3 344 c-3 327 -2 343 15 337 10 -4 274 -156 588
-338z"/>
</g>
</svg>
